<?xml version="1.0" standalone="no"?>
<!DOCTYPE svg PUBLIC "-//W3C//DTD SVG 20010904//EN"
 "http://www.w3.org/TR/2001/REC-SVG-20010904/DTD/svg10.dtd">
<svg version="1.0" xmlns="http://www.w3.org/2000/svg"
 width="465.000000pt" height="137.000000pt" viewBox="0 0 465.000000 137.000000"
 preserveAspectRatio="xMidYMid meet">

<g transform="translate(0.000000,137.000000) scale(0.100000,-0.100000)"
fill="#000000" stroke="none">
<path d="M1064 1360 c-12 -4 -24 -14 -27 -22 -150 -378 -467 -1214 -467 -1232
0 -35 38 -60 72 -47 14 5 28 15 31 23 148 373 467 1214 467 1232 0 14 -9 31
-22 40 -25 18 -25 18 -54 6z m41 -43 c3 -7 -100 -284 -229 -617 -226 -586
-253 -645 -271 -598 -3 7 97 276 221 598 124 322 230 595 235 608 9 24 37 30
44 9z"/>
<path d="M2290 1159 c-32 -13 -68 -47 -85 -79 -7 -14 -20 -85 -29 -159 -16
-126 -15 -135 1 -170 24 -47 54 -61 138 -61 89 0 134 27 161 95 9 25 15 47 13
49 -2 2 -31 6 -64 7 -56 4 -60 2 -63 -18 -2 -15 -10 -23 -23 -23 -17 0 -19 5
-15 33 3 17 10 72 16 121 12 99 15 106 36 106 8 0 14 -10 14 -25 0 -25 2 -26
58 -23 l57 3 3 37 c4 46 -10 74 -51 98 -35 22 -123 26 -167 9z"/>
<path d="M2655 1159 c-77 -22 -107 -95 -121 -300 l-7 -96 31 -34 c29 -32 34
-34 109 -37 64 -2 84 0 110 17 61 38 74 74 93 252 14 128 3 166 -53 192 -37
18 -112 21 -162 6z m95 -116 c0 -10 -5 -65 -11 -123 -12 -107 -26 -143 -46
-118 -7 9 -6 46 3 123 8 61 17 116 19 123 7 18 35 14 35 -5z"/>
<path d="M3339 1162 l-35 -3 -18 -157 c-9 -86 -19 -168 -22 -182 -4 -19 -2
-22 6 -10 7 11 10 -4 10 -52 l0 -68 129 0 c72 0 132 3 134 8 3 4 7 27 8 52 l4
45 -67 3 c-59 3 -68 5 -68 22 0 37 12 50 45 50 40 0 41 1 50 63 l7 47 -42 0
c-42 0 -42 0 -36 31 3 17 6 35 6 40 0 5 31 9 69 9 75 0 81 5 81 73 0 21 -5 27
-22 28 -107 3 -209 3 -239 1z"/>
<path d="M3679 1162 l-35 -3 -27 -227 c-15 -125 -27 -231 -27 -235 0 -4 35 -7
78 -5 l77 3 9 78 c5 42 12 77 17 77 4 0 10 -36 14 -80 l7 -80 64 0 65 0 -6 33
c-26 157 -27 169 -7 191 41 44 55 101 42 161 -15 66 -37 79 -143 85 -50 3
-108 4 -128 2z m135 -108 c18 -7 21 -36 6 -65 -12 -22 -40 -26 -40 -5 0 18 12
76 15 76 2 0 10 -3 19 -6z"/>
<path d="M4095 1159 c-50 -14 -88 -61 -95 -119 -4 -31 -2 -60 6 -77 16 -39 85
-102 120 -112 21 -5 29 -14 29 -29 0 -29 -19 -33 -23 -4 -3 21 -8 22 -83 22
l-79 0 0 -35 c0 -21 5 -34 11 -32 14 3 49 -54 41 -67 -3 -5 0 -6 6 -2 6 3 13
2 17 -4 3 -5 36 -10 73 -10 83 0 125 23 152 83 36 78 27 105 -62 189 -39 37
-58 63 -56 75 5 26 32 22 36 -5 3 -21 8 -23 60 -20 l57 3 3 37 c4 46 -10 74
-51 98 -34 21 -107 25 -162 9z"/>
<path d="M2935 1138 c-2 -13 -14 -105 -26 -205 -18 -157 -19 -186 -8 -213 l14
-31 102 3 c84 2 106 7 129 24 57 42 67 66 86 210 27 211 9 234 -181 234 -107
0 -111 -1 -116 -22z m180 -88 c8 -13 -13 -196 -25 -227 -5 -13 -17 -23 -25
-23 -11 0 -14 7 -11 23 3 12 10 65 16 117 6 52 13 101 15 108 5 15 21 16 30 2z"/>
<path d="M282 949 c-133 -105 -250 -202 -259 -215 -14 -22 -14 -26 1 -48 25
-39 498 -406 522 -406 45 0 70 62 39 94 -9 8 -105 86 -215 172 -110 86 -200
160 -200 164 0 4 91 78 203 165 111 87 208 165 215 173 28 35 1 92 -44 92 -10
0 -128 -86 -262 -191z m288 136 c0 -7 -103 -93 -229 -191 -127 -98 -230 -181
-230 -184 0 -3 103 -86 229 -184 127 -99 230 -185 230 -193 0 -7 -6 -16 -14
-19 -21 -8 -501 372 -501 396 0 12 81 82 243 209 228 179 272 206 272 166z"/>
<path d="M1136 1124 c-9 -8 -16 -28 -16 -43 0 -25 27 -49 215 -197 118 -93
215 -171 215 -174 0 -3 -97 -81 -215 -174 -202 -159 -215 -171 -215 -202 0
-35 21 -54 57 -54 10 0 131 89 268 198 241 190 250 199 250 232 0 33 -9 42
-250 232 -148 117 -259 198 -272 198 -12 0 -29 -7 -37 -16z m293 -211 c132
-103 240 -195 240 -203 0 -17 -473 -392 -497 -394 -9 0 -18 6 -20 15 -2 11 69
73 223 193 124 98 225 181 225 186 0 4 -101 88 -225 185 -124 97 -225 182
-225 189 0 18 12 27 26 22 7 -3 121 -90 253 -193z"/>
<path d="M2068 662 c-27 -3 -31 -12 -99 -225 -40 -122 -74 -228 -76 -235 -4
-9 15 -12 76 -12 l82 0 6 30 c4 21 11 30 25 30 15 0 19 -6 16 -27 l-3 -28 83
-3 c45 -2 82 1 82 5 -1 31 -40 456 -42 458 -6 5 -124 11 -150 7z m62 -247 c0
-59 -2 -65 -21 -65 -15 0 -19 5 -15 18 3 9 10 38 17 65 6 26 13 47 15 47 2 0
4 -29 4 -65z"/>
<path d="M2437 656 c-79 -28 -95 -56 -113 -190 -31 -235 -11 -276 134 -276 49
0 76 5 100 20 37 23 72 75 72 107 0 19 -6 22 -56 25 -50 3 -57 1 -65 -19 -10
-26 -25 -37 -34 -23 -6 11 11 206 21 243 8 27 34 21 34 -8 0 -25 1 -26 63 -23
59 3 62 4 65 29 11 99 -101 157 -221 115z"/>
<path d="M2828 662 c-27 -3 -30 -11 -99 -225 -40 -122 -74 -228 -76 -235 -4
-9 15 -12 75 -12 l80 0 6 30 c4 21 11 30 26 30 16 0 20 -7 20 -30 l0 -30 74 0
c41 0 77 3 79 8 2 4 -4 99 -14 212 -10 113 -18 215 -19 227 0 19 -6 22 -62 25
-35 1 -75 2 -90 0z m62 -257 c0 -49 -2 -55 -21 -55 -18 0 -20 4 -15 26 4 15
10 39 13 55 9 48 23 33 23 -26z"/>
<path d="M3138 662 c-16 -2 -28 -9 -28 -15 0 -7 -11 -102 -25 -211 -14 -110
-25 -210 -25 -223 0 -23 2 -23 103 -23 87 0 110 3 147 22 61 32 76 68 95 225
15 117 15 134 1 160 -25 50 -42 57 -145 63 -53 3 -108 4 -123 2z m149 -118
c10 -26 -17 -217 -32 -233 -8 -8 -18 -12 -21 -8 -7 6 12 202 22 240 7 21 23
22 31 1z"/>
<path d="M3523 662 c-20 -3 -23 -9 -23 -45 0 -36 -2 -39 -13 -23 -11 15 -16
-10 -36 -176 -13 -106 -25 -201 -28 -210 -4 -17 8 -18 145 -18 167 0 162 -3
162 78 l0 32 -68 0 -68 0 4 35 c4 32 7 35 36 35 43 0 56 16 56 67 0 43 0 43
-36 43 -35 0 -35 1 -32 38 l3 37 72 3 71 3 4 47 c3 26 4 48 4 49 -2 3 -233 8
-253 5z"/>
<path d="M3868 663 c-40 -3 -49 -8 -53 -26 -4 -19 -34 -256 -50 -400 l-6 -48
78 3 77 3 7 35 c4 19 12 84 19 144 l13 109 19 -37 c10 -20 23 -34 29 -30 7 4
8 -6 5 -28 -6 -33 -26 -186 -26 -194 0 -2 36 -4 79 -4 l79 0 7 47 c3 27 16
132 29 236 l22 187 -59 0 c-50 0 -63 -4 -81 -24 -11 -13 -22 -30 -24 -37 -8
-32 -21 -30 -36 6 -9 21 -16 41 -16 46 0 5 -9 9 -19 9 -11 0 -25 1 -33 3 -7 2
-34 2 -60 0z m178 -228 c-7 -37 -20 -45 -30 -19 -6 15 22 69 32 60 2 -3 1 -21
-2 -41z"/>
<path d="M4261 610 c-14 -63 -14 -60 4 -60 10 0 15 -10 15 -27 0 -22 -2 -25
-10 -13 -8 12 -9 9 -6 -10 26 -131 27 -142 17 -215 -6 -42 -11 -81 -11 -86 0
-12 147 -12 154 0 3 5 11 44 17 87 8 60 25 112 71 214 33 74 62 141 65 148 4
9 -13 12 -65 12 l-69 0 -6 -37 c-2 -21 -12 -54 -20 -73 l-15 -35 -1 73 -1 72
-64 0 -64 0 -11 -50z"/>
<path d="M4241 614 c0 -11 3 -14 6 -6 3 7 2 16 -1 19 -3 4 -6 -2 -5 -13z"/>
</g>
</svg>
