<?xml version="1.0" standalone="no"?>
<!DOCTYPE svg PUBLIC "-//W3C//DTD SVG 20010904//EN"
 "http://www.w3.org/TR/2001/REC-SVG-20010904/DTD/svg10.dtd">
<svg version="1.0" xmlns="http://www.w3.org/2000/svg"
 width="500.000000pt" height="500.000000pt" viewBox="0 0 500.000000 500.000000"
 preserveAspectRatio="xMidYMid meet">

<g transform="translate(0.000000,500.000000) scale(0.100000,-0.100000)"
fill="#000000" stroke="none">
<path d="M1168 3653 c-9 -10 -78 -178 -153 -373 -75 -195 -181 -471 -236 -612
-81 -210 -97 -261 -90 -281 15 -39 66 -50 93 -19 13 13 410 1024 474 1205 14
40 7 71 -20 89 -19 13 -52 9 -68 -9z m62 -40 c0 -20 -446 -1178 -466 -1210
-15 -25 -44 -21 -44 5 0 15 440 1162 462 1205 11 22 48 23 48 0z"/>
<path d="M4403 3441 c20 -25 27 -43 27 -77 0 -24 5 -44 10 -44 16 0 12 83 -6
108 -8 12 -25 27 -37 33 -19 11 -18 8 6 -20z"/>
<path d="M2623 3420 c6 -16 15 -30 19 -30 5 0 2 14 -7 30 -9 17 -17 30 -19 30
-3 0 1 -13 7 -30z"/>
<path d="M398 3250 c-134 -105 -249 -199 -257 -210 -25 -36 -5 -64 106 -151
355 -280 395 -309 422 -309 36 0 51 17 51 56 0 31 -14 44 -212 200 -117 91
-214 169 -215 173 -1 3 95 82 213 174 200 157 214 170 214 201 0 17 -5 37 -12
44 -32 32 -64 14 -310 -178z m287 135 c0 -13 -69 -73 -220 -192 -121 -95 -221
-176 -223 -181 -1 -5 99 -89 223 -186 219 -172 251 -205 205 -213 -16 -3 -500
373 -507 393 -5 15 487 405 507 401 8 -1 15 -11 15 -22z"/>
<path d="M1244 3415 c-13 -20 -14 -31 -6 -49 6 -13 105 -97 221 -187 115 -90
210 -166 210 -169 0 -3 -95 -79 -210 -169 -116 -90 -216 -175 -221 -187 -8
-18 -7 -29 6 -49 34 -51 55 -40 323 170 136 108 252 204 257 215 5 12 5 28 0
40 -5 10 -121 107 -258 215 -268 210 -288 221 -322 170z m302 -197 c141 -111
244 -199 244 -208 0 -10 -104 -98 -245 -209 -236 -185 -283 -213 -273 -164 2
9 102 95 223 191 121 95 220 177 220 182 0 5 -90 79 -200 165 -110 87 -211
168 -224 180 -23 23 -24 55 -1 55 6 0 121 -86 256 -192z"/>
<path d="M2461 3272 c-6 -48 -11 -106 -10 -128 1 -39 1 -39 10 -9 13 45 27
209 19 218 -4 5 -12 -32 -19 -81z"/>
<path d="M3201 3304 c0 -11 3 -14 6 -6 3 7 2 16 -1 19 -3 4 -6 -2 -5 -13z"/>
<path d="M4336 3268 c25 -23 52 -55 61 -71 21 -41 9 -108 -25 -148 -22 -27
-23 -30 -6 -21 47 25 76 110 54 161 -6 16 -35 49 -65 75 -67 57 -80 61 -19 4z"/>
<path d="M2600 3108 c-7 -24 -28 -58 -49 -77 l-36 -35 35 20 c36 21 64 60 75
107 11 44 -11 31 -25 -15z"/>
<path d="M4521 2925 c1 -43 2 -46 9 -22 5 16 5 38 0 50 -7 17 -9 10 -9 -28z"/>
<path d="M4638 2823 c-36 -82 -68 -170 -72 -198 -4 -27 -9 -68 -12 -90 -4 -28
-3 -37 4 -30 6 6 15 44 20 86 7 57 24 107 67 205 72 162 76 174 66 174 -4 0
-37 -66 -73 -147z"/>
<path d="M2353 2885 c0 -22 2 -30 4 -17 2 12 2 30 0 40 -3 9 -5 -1 -4 -23z"/>
<path d="M4273 2565 c0 -22 2 -30 4 -17 2 12 2 30 0 40 -3 9 -5 -1 -4 -23z"/>
<path d="M3851 2544 c0 -11 3 -14 6 -6 3 7 2 16 -1 19 -3 4 -6 -2 -5 -13z"/>
</g>
</svg>
