<?xml version="1.0" standalone="no"?>
<!DOCTYPE svg PUBLIC "-//W3C//DTD SVG 20010904//EN"
 "http://www.w3.org/TR/2001/REC-SVG-20010904/DTD/svg10.dtd">
<svg version="1.0" xmlns="http://www.w3.org/2000/svg"
 width="812.000000pt" height="284.000000pt" viewBox="0 0 812.000000 284.000000"
 preserveAspectRatio="xMidYMid meet">

<g transform="translate(0.000000,284.000000) scale(0.100000,-0.100000)"
fill="#000000" stroke="none">
<path d="M1908 2713 c-16 -2 -28 -11 -28 -19 0 -8 -4 -14 -10 -14 -5 0 -10 -9
-10 -20 0 -11 -6 -20 -14 -20 -15 0 -26 -30 -26 -72 0 -16 -4 -28 -10 -28 -5
0 -10 -7 -10 -15 0 -8 -4 -15 -9 -15 -5 0 -12 -29 -16 -65 -3 -36 -11 -65 -16
-65 -5 0 -9 -9 -9 -20 0 -11 -4 -20 -9 -20 -4 0 -11 -19 -14 -42 -3 -24 -11
-44 -16 -46 -6 -2 -11 -19 -11 -38 0 -19 -4 -34 -10 -34 -5 0 -10 -11 -10 -25
0 -14 -4 -25 -9 -25 -5 0 -12 -22 -16 -50 -4 -27 -11 -50 -16 -50 -5 0 -9 -11
-9 -25 0 -14 -4 -25 -10 -25 -5 0 -10 -11 -10 -25 0 -14 -4 -25 -10 -25 -5 0
-10 -11 -10 -25 0 -14 -4 -25 -10 -25 -5 0 -10 -11 -10 -25 0 -14 -4 -25 -9
-25 -5 0 -11 -22 -15 -50 -4 -27 -11 -50 -16 -50 -6 0 -10 -13 -10 -30 0 -16
-4 -30 -10 -30 -5 0 -12 -22 -16 -50 -4 -27 -10 -50 -15 -50 -5 0 -9 -13 -9
-30 0 -16 -4 -30 -10 -30 -5 0 -12 -22 -16 -50 -4 -27 -10 -50 -15 -50 -5 0
-9 -9 -9 -20 0 -11 -4 -20 -9 -20 -5 0 -11 -23 -15 -50 -4 -27 -11 -50 -16
-50 -6 0 -10 -13 -10 -30 0 -19 -5 -30 -14 -30 -9 0 -16 -18 -20 -50 -4 -27
-11 -50 -16 -50 -6 0 -10 -11 -10 -25 0 -14 -4 -25 -9 -25 -5 0 -12 -22 -16
-50 -4 -27 -11 -50 -16 -50 -5 0 -9 -15 -9 -34 0 -19 -5 -36 -11 -38 -6 -2
-13 -25 -16 -51 -3 -26 -10 -47 -14 -47 -5 0 -9 -7 -9 -15 0 -8 -4 -15 -10
-15 -5 0 -10 -15 -10 -34 0 -19 -5 -36 -11 -38 -6 -2 -13 -25 -16 -51 -3 -26
-10 -47 -14 -47 -5 0 -9 -13 -9 -30 0 -16 -4 -30 -10 -30 -5 0 -10 -7 -10 -15
0 -8 -4 -15 -10 -15 -5 0 -10 -16 -10 -35 0 -19 -4 -35 -10 -35 -5 0 -10 -7
-10 -15 0 -8 -4 -15 -9 -15 -4 0 -11 -27 -15 -60 -4 -33 -11 -60 -16 -60 -6 0
-10 -27 -10 -60 0 -33 4 -60 9 -60 5 0 11 -9 14 -20 3 -12 14 -20 26 -20 12 0
21 -4 21 -10 0 -5 9 -10 20 -10 11 0 20 5 20 10 0 6 9 10 19 10 35 0 51 12 51
36 0 13 4 24 10 24 5 0 12 23 16 50 4 28 10 50 15 50 5 0 9 9 9 20 0 11 4 20
9 20 5 0 12 25 16 55 3 30 11 55 16 55 5 0 9 11 9 25 0 14 4 25 9 25 5 0 12
23 16 50 5 33 12 50 21 50 8 0 14 10 14 25 0 14 4 25 9 25 5 0 12 25 16 55 3
30 11 55 16 55 5 0 9 11 9 25 0 14 4 25 9 25 5 0 12 23 16 50 4 28 11 50 16
50 5 0 9 11 9 25 0 14 4 25 10 25 5 0 12 27 16 60 4 33 11 60 15 60 5 0 9 7 9
15 0 8 4 15 9 15 5 0 11 23 15 50 4 27 11 50 16 50 6 0 10 14 10 30 0 17 5 30
10 30 6 0 10 14 10 30 0 17 5 30 10 30 6 0 10 9 10 20 0 11 5 20 10 20 6 0 10
14 10 30 0 17 4 30 10 30 5 0 12 22 16 50 4 28 10 50 15 50 5 0 9 9 9 20 0 11
5 20 10 20 6 0 10 11 10 25 0 14 4 25 9 25 4 0 11 21 14 47 3 26 10 49 16 51
6 2 11 19 11 37 0 18 5 35 11 37 6 2 13 25 16 51 3 26 10 47 14 47 5 0 9 14 9
30 0 17 4 30 10 30 5 0 12 23 16 50 4 32 11 50 20 50 8 0 14 7 14 15 0 8 4 15
9 15 4 0 11 21 14 47 3 26 10 49 16 51 6 2 11 19 11 38 0 19 4 34 9 34 5 0 12
23 16 50 4 28 11 50 16 50 5 0 9 11 9 25 0 14 4 25 9 25 5 0 12 23 16 50 4 28
11 50 16 50 5 0 9 14 9 30 0 17 5 30 10 30 6 0 10 26 10 58 0 46 -4 60 -20 72
-11 8 -20 20 -20 26 0 10 -36 26 -50 22 -3 0 -17 -3 -32 -5z m58 -87 c16 -17
19 -66 4 -66 -5 0 -10 -9 -10 -20 0 -11 -4 -20 -9 -20 -5 0 -12 -25 -16 -55
-3 -30 -11 -55 -16 -55 -5 0 -9 -11 -9 -25 0 -14 -4 -25 -9 -25 -5 0 -12 -22
-16 -50 -4 -27 -11 -50 -16 -50 -5 0 -9 -11 -9 -25 0 -15 -6 -25 -14 -25 -9 0
-16 -18 -21 -55 -3 -30 -11 -55 -16 -55 -5 0 -9 -11 -9 -25 0 -14 -4 -25 -9
-25 -5 0 -12 -22 -16 -50 -4 -27 -11 -50 -16 -50 -5 0 -9 -15 -9 -34 0 -19 -5
-36 -11 -38 -6 -2 -13 -25 -16 -51 -3 -26 -10 -47 -14 -47 -5 0 -9 -7 -9 -15
0 -8 -4 -15 -10 -15 -5 0 -10 -13 -10 -30 0 -16 -4 -30 -10 -30 -5 0 -12 -22
-16 -50 -4 -27 -10 -50 -15 -50 -5 0 -9 -13 -9 -30 0 -16 -4 -30 -10 -30 -5 0
-10 -9 -10 -20 0 -11 -4 -20 -10 -20 -5 0 -10 -13 -10 -30 0 -16 -4 -30 -10
-30 -5 0 -10 -9 -10 -20 0 -11 -4 -20 -9 -20 -5 0 -12 -27 -16 -60 -4 -33 -11
-60 -16 -60 -5 0 -9 -7 -9 -15 0 -8 -4 -15 -9 -15 -4 0 -11 -21 -14 -47 -3
-26 -10 -49 -16 -51 -6 -2 -11 -19 -11 -37 0 -18 -5 -35 -11 -37 -6 -2 -13
-25 -16 -51 -3 -26 -10 -47 -14 -47 -5 0 -9 -13 -9 -30 0 -16 -4 -30 -10 -30
-5 0 -12 -22 -16 -50 -4 -27 -10 -50 -15 -50 -5 0 -9 -7 -9 -15 0 -8 -6 -15
-14 -15 -9 0 -16 -19 -20 -60 -4 -33 -11 -60 -16 -60 -6 0 -10 -11 -10 -25 0
-14 -4 -25 -9 -25 -5 0 -12 -22 -16 -50 -4 -27 -11 -50 -16 -50 -5 0 -9 -11
-9 -25 0 -14 -4 -25 -9 -25 -5 0 -12 -23 -16 -50 -4 -28 -11 -50 -16 -50 -5 0
-9 -13 -9 -30 0 -16 -4 -30 -10 -30 -5 0 -10 -9 -10 -20 0 -11 -4 -20 -10 -20
-5 0 -10 -11 -10 -24 0 -13 -3 -31 -6 -40 -8 -20 -51 -21 -70 -2 -16 17 -19
66 -4 66 6 0 10 9 10 20 0 11 5 20 10 20 6 0 10 14 10 30 0 17 5 30 10 30 6 0
10 11 10 25 0 14 4 25 9 25 5 0 12 23 16 50 4 28 11 50 16 50 5 0 9 11 9 25 0
14 5 25 10 25 6 0 10 11 10 25 0 14 4 25 9 25 4 0 11 21 14 47 3 26 10 49 16
51 6 2 11 19 11 37 0 18 5 35 11 37 5 2 13 22 16 46 3 23 10 42 14 42 5 0 9 9
9 20 0 11 4 20 9 20 5 0 13 29 16 65 5 45 12 65 21 65 8 0 14 7 14 15 0 8 4
15 9 15 4 0 11 21 14 47 3 26 10 49 16 51 6 2 11 19 11 38 0 19 4 34 9 34 5 0
12 20 15 45 4 25 11 45 17 45 5 0 9 14 9 30 0 17 4 30 10 30 5 0 12 23 16 50
4 28 10 50 15 50 5 0 9 14 9 30 0 17 4 30 10 30 5 0 12 23 16 50 4 28 10 50
15 50 5 0 9 9 9 20 0 11 5 20 10 20 6 0 10 14 10 30 0 17 5 30 10 30 6 0 10 7
10 15 0 8 5 15 10 15 6 0 10 16 10 35 0 19 4 35 9 35 5 0 12 23 16 50 4 28 11
50 16 50 5 0 9 11 9 25 0 14 5 25 10 25 6 0 10 11 10 25 0 14 4 25 9 25 5 0
13 25 16 55 4 30 11 55 16 55 5 0 9 11 9 25 0 14 4 25 9 25 5 0 12 23 16 50 4
28 11 50 16 50 5 0 9 11 9 25 0 14 4 25 9 25 5 0 12 23 16 50 5 33 12 50 21
50 9 0 14 11 14 30 0 17 4 30 9 30 6 0 13 21 17 47 4 26 12 53 18 60 15 17 44
16 62 -1z"/>
<path d="M4128 2333 c-16 -2 -28 -9 -28 -14 0 -5 -11 -9 -25 -9 -16 0 -25 -6
-25 -15 0 -8 -5 -15 -11 -15 -18 0 -88 -77 -95 -104 -3 -14 -10 -26 -15 -26
-5 0 -9 -15 -9 -34 0 -19 -4 -36 -10 -38 -5 -1 -12 -65 -16 -140 -4 -76 -11
-138 -16 -138 -4 0 -8 -38 -8 -85 0 -50 -4 -85 -10 -85 -5 0 -10 -13 -10 -30
0 -16 5 -30 10 -30 6 0 10 -18 10 -40 0 -22 5 -40 10 -40 6 0 10 -8 10 -18 0
-22 32 -62 49 -62 6 0 11 -4 11 -10 0 -5 9 -10 20 -10 11 0 20 -4 20 -10 0 -6
37 -10 90 -10 53 0 90 4 90 10 0 6 11 10 24 10 16 0 27 7 31 20 3 11 15 20 26
20 10 0 19 4 19 8 0 14 36 52 49 52 6 0 14 14 18 30 3 17 9 30 14 30 5 0 9 9
9 19 0 11 4 21 9 23 4 2 10 24 13 51 l6 47 -104 0 c-63 0 -104 -4 -104 -10 0
-5 -7 -10 -15 -10 -8 0 -15 -9 -15 -20 0 -11 5 -20 10 -20 18 0 11 -28 -9 -35
-40 -12 -51 3 -51 71 0 35 4 64 9 64 5 0 12 74 16 165 4 91 11 165 16 165 5 0
9 16 9 35 0 31 3 35 25 35 16 0 25 -6 25 -15 0 -8 -4 -15 -10 -15 -5 0 -10
-22 -10 -50 l0 -50 60 0 c47 0 60 3 60 15 0 11 12 15 51 15 30 0 56 6 65 14
16 17 20 136 4 136 -5 0 -10 11 -10 25 0 14 -4 25 -9 25 -5 0 -12 11 -15 25
-4 14 -11 25 -16 25 -6 0 -10 7 -10 15 0 8 -6 15 -14 15 -8 0 -16 5 -18 10 -3
11 -155 21 -200 13z"/>
<path d="M4758 2333 c-21 -2 -38 -8 -38 -14 0 -5 -7 -9 -15 -9 -8 0 -15 -7
-15 -15 0 -8 -5 -15 -10 -15 -11 0 -28 -12 -53 -37 -28 -28 -37 -43 -37 -62 0
-11 -5 -21 -11 -23 -6 -2 -13 -25 -16 -51 -4 -31 -10 -47 -19 -47 -10 0 -14
-17 -14 -65 0 -37 -4 -65 -10 -65 -6 0 -10 -33 -10 -80 0 -47 -4 -80 -10 -80
-6 0 -10 -50 -10 -130 0 -80 4 -130 10 -130 6 0 10 -7 10 -16 0 -18 23 -44 39
-44 6 0 11 -4 11 -8 0 -18 38 -52 59 -52 11 0 21 -4 21 -10 0 -6 32 -10 75
-10 43 0 75 4 75 10 0 6 14 10 30 10 17 0 30 5 30 10 0 6 7 10 15 10 8 0 15 5
15 10 0 6 9 10 20 10 11 0 20 4 20 10 0 5 11 20 23 32 13 13 27 36 31 51 3 15
11 27 16 27 6 0 10 11 10 25 0 14 5 25 10 25 6 0 10 28 10 65 0 49 3 65 14 65
11 0 16 33 21 160 4 88 11 160 16 160 5 0 9 23 9 50 0 28 -4 50 -9 50 -5 0
-11 23 -15 50 -4 31 -12 50 -20 50 -17 0 -56 34 -56 49 0 6 -6 11 -14 11 -8 0
-16 5 -18 11 -4 11 -130 20 -190 12z m72 -246 c0 -24 -3 -105 -7 -180 -5 -105
-9 -137 -20 -137 -10 0 -13 -21 -13 -90 0 -82 -2 -90 -19 -90 -41 0 -51 11
-51 56 0 24 5 44 10 44 6 0 10 37 10 90 0 50 4 90 9 90 4 0 11 51 14 112 3 65
10 114 16 116 6 2 11 10 11 18 0 8 9 14 20 14 17 0 20 -7 20 -43z"/>
<path d="M7283 2333 c-24 -2 -43 -8 -43 -14 0 -5 -7 -9 -15 -9 -8 0 -15 -7
-15 -15 0 -8 -7 -15 -15 -15 -24 0 -85 -69 -85 -96 0 -13 -4 -24 -10 -24 -5 0
-10 -6 -10 -14 0 -8 -5 -16 -12 -18 -8 -3 -11 -39 -11 -113 0 -74 3 -110 11
-113 7 -2 12 -8 12 -14 0 -5 6 -16 13 -23 27 -31 37 -44 37 -50 0 -4 18 -24
40 -46 28 -28 48 -39 70 -39 20 0 30 -5 30 -15 0 -8 5 -15 10 -15 6 0 10 -16
10 -35 0 -19 5 -35 10 -35 16 0 11 -27 -6 -34 -26 -10 -34 -7 -34 14 0 11 -7
20 -15 20 -8 0 -15 5 -15 10 0 6 7 10 15 10 8 0 15 9 15 20 0 19 -7 20 -105
20 -63 0 -105 -4 -105 -10 0 -5 -9 -10 -20 -10 -18 0 -20 -7 -20 -80 0 -47 4
-80 10 -80 6 0 10 -9 10 -20 0 -11 4 -20 9 -20 5 0 11 -13 15 -30 4 -21 11
-30 26 -30 11 0 20 -4 20 -10 0 -5 7 -10 15 -10 8 0 15 -4 15 -10 0 -6 37 -10
90 -10 53 0 90 4 90 10 0 6 11 10 25 10 14 0 25 5 25 10 0 6 6 10 13 10 7 0
19 9 27 20 8 11 18 20 23 20 13 0 37 27 37 42 0 8 9 20 20 28 11 8 20 22 20
32 0 10 5 18 10 18 6 0 10 23 10 50 0 28 5 50 10 50 6 0 10 7 10 15 0 8 -4 15
-10 15 -5 0 -10 17 -10 38 0 26 -6 42 -20 52 -11 8 -20 23 -20 34 0 19 -35 56
-52 56 -13 0 -38 26 -38 39 0 6 -4 11 -9 11 -5 0 -12 9 -16 19 -3 11 -15 23
-25 26 -11 4 -23 17 -26 31 -3 13 -10 24 -15 24 -5 0 -9 16 -9 35 0 19 5 35
10 35 6 0 10 7 10 15 0 8 7 15 15 15 18 0 20 -26 3 -34 -10 -5 -10 -7 0 -12 6
-3 12 -12 12 -20 0 -8 4 -14 10 -14 5 0 12 -11 16 -25 6 -24 10 -25 80 -25 59
0 74 3 74 15 0 8 5 15 11 15 26 0 39 30 39 89 0 34 -4 61 -9 61 -5 0 -11 17
-14 38 -4 21 -15 44 -27 52 -11 8 -20 20 -20 27 0 7 -9 13 -19 13 -11 0 -21 5
-23 10 -4 12 -120 20 -185 13z"/>
<path d="M5250 2320 c0 -5 -8 -10 -19 -10 -22 0 -31 -40 -31 -152 0 -45 -4
-78 -10 -78 -6 0 -10 -32 -10 -75 0 -41 -4 -75 -9 -75 -5 0 -12 -74 -16 -165
-4 -91 -11 -165 -16 -165 -5 0 -9 -38 -9 -85 0 -50 -4 -85 -10 -85 -5 0 -10
-13 -10 -30 l0 -30 140 0 c87 0 140 4 140 10 0 6 16 10 35 10 19 0 35 5 35 10
0 6 10 10 23 10 12 0 29 9 37 20 8 11 21 20 30 20 9 0 22 10 30 21 8 12 25 33
38 46 17 16 25 40 29 78 3 30 10 55 14 55 5 0 9 33 9 74 0 43 4 76 10 78 7 2
12 77 13 209 l2 205 -37 36 c-21 19 -38 40 -38 47 0 6 -11 11 -25 11 -14 0
-25 5 -25 10 0 6 -60 10 -160 10 -100 0 -160 -4 -160 -10z m210 -315 c0 -77
-4 -125 -10 -125 -6 0 -10 -32 -10 -75 0 -43 -4 -75 -10 -75 -6 0 -10 -28 -10
-65 0 -63 -1 -65 -25 -65 -22 0 -25 4 -25 35 0 19 5 35 10 35 6 0 10 33 10 80
0 44 4 80 9 80 5 0 12 68 16 150 7 138 9 150 26 150 18 0 19 -9 19 -125z"/>
<path d="M5870 2312 c-10 -11 -16 -44 -19 -99 -1 -46 -7 -83 -12 -83 -5 0 -9
-36 -9 -80 0 -44 -4 -80 -9 -80 -5 0 -12 -72 -16 -160 -5 -127 -10 -160 -21
-160 -11 0 -14 -18 -14 -80 0 -47 -4 -80 -10 -80 -6 0 -10 -27 -10 -60 l0 -60
220 0 c140 0 220 4 220 10 0 6 8 10 19 10 23 0 31 35 31 136 l0 74 -110 0
-110 0 0 71 c0 52 4 75 17 87 12 12 18 13 21 4 4 -14 82 -17 82 -2 0 6 9 10
20 10 18 0 20 7 20 69 0 38 3 83 6 100 l7 31 -67 0 -66 0 0 45 c0 25 5 45 10
45 6 0 10 16 10 35 0 24 5 35 15 35 8 0 15 -7 15 -15 0 -12 17 -15 90 -15 73
0 90 3 90 15 0 8 7 15 15 15 12 0 15 13 15 60 0 33 4 60 10 60 6 0 10 18 10
40 l0 40 -227 0 c-201 -1 -230 -3 -243 -18z"/>
<path d="M6464 2305 c-3 -14 -10 -25 -15 -25 -5 0 -9 -34 -9 -75 0 -43 -4 -75
-10 -75 -6 0 -10 -33 -10 -80 0 -44 -4 -80 -9 -80 -5 0 -12 -72 -16 -160 -4
-88 -11 -160 -16 -160 -5 0 -9 -40 -9 -90 0 -53 -4 -90 -10 -90 -5 0 -10 -22
-10 -50 l0 -50 100 0 c60 0 100 4 100 10 0 6 7 10 15 10 8 0 15 9 15 20 0 11
5 20 10 20 6 0 10 33 10 80 0 47 4 80 10 80 6 0 10 33 10 80 0 64 3 80 15 80
13 0 15 -20 15 -120 0 -73 -4 -120 -10 -120 -5 0 -10 -13 -10 -30 0 -16 5 -30
10 -30 6 0 10 -18 10 -40 l0 -40 95 0 c57 0 95 4 95 10 0 6 9 10 20 10 18 0
20 7 20 80 0 47 -4 80 -10 80 -6 0 -10 30 -10 70 0 40 -4 70 -10 70 -6 0 -10
30 -10 70 0 63 2 70 20 70 13 0 22 9 26 25 3 14 10 25 15 25 5 0 9 11 9 25 0
14 5 25 10 25 6 0 10 9 10 20 0 11 5 20 10 20 6 0 10 42 10 105 0 63 -4 105
-10 105 -5 0 -10 9 -10 21 0 11 -16 35 -35 53 -19 19 -35 38 -35 45 0 6 -7 11
-15 11 -8 0 -15 5 -15 10 0 6 -67 10 -180 10 l-180 0 -6 -25z m236 -215 c0
-22 5 -40 10 -40 6 0 10 -11 10 -25 0 -14 -4 -25 -10 -25 -5 0 -10 -11 -10
-25 0 -20 -5 -25 -25 -25 -24 0 -25 2 -25 65 0 37 4 65 10 65 6 0 10 11 10 25
0 16 6 25 15 25 11 0 15 -11 15 -40z"/>
<path d="M936 2245 c-8 -8 -17 -15 -21 -15 -10 0 -35 -28 -35 -39 0 -6 -6 -11
-14 -11 -8 0 -16 -7 -20 -15 -3 -8 -14 -15 -25 -15 -11 0 -23 -9 -27 -22 -7
-23 -28 -48 -39 -48 -4 0 -12 -6 -19 -12 -8 -7 -23 -20 -35 -28 -11 -8 -21
-20 -21 -27 0 -7 -5 -13 -10 -13 -11 0 -25 -10 -65 -47 -13 -13 -29 -23 -35
-23 -5 0 -10 -5 -10 -11 0 -14 -39 -49 -53 -49 -12 0 -47 -39 -47 -52 0 -14
-23 -35 -48 -42 -12 -4 -22 -12 -22 -17 0 -5 -7 -9 -15 -9 -8 0 -17 -11 -21
-25 -4 -15 -13 -25 -24 -25 -9 0 -26 -11 -36 -25 -10 -14 -23 -25 -27 -25 -12
0 -37 -26 -37 -39 0 -5 -9 -13 -20 -16 -11 -3 -20 -11 -20 -16 0 -5 -5 -9 -11
-9 -13 0 -49 -38 -49 -52 0 -4 -5 -8 -11 -8 -17 0 -49 -40 -49 -62 0 -10 -4
-18 -10 -18 -5 0 -10 -9 -10 -20 0 -11 5 -20 10 -20 6 0 10 -8 10 -18 0 -22
32 -62 49 -62 6 0 11 -4 11 -8 0 -16 34 -49 58 -56 12 -4 22 -12 22 -17 0 -10
45 -59 54 -59 10 0 46 -34 46 -43 0 -12 27 -37 39 -37 6 0 11 -4 11 -9 0 -5
11 -12 25 -15 14 -4 25 -11 25 -16 0 -6 7 -10 15 -10 8 0 15 -7 15 -15 0 -8 4
-15 9 -15 5 0 12 -9 16 -19 3 -11 16 -23 28 -27 25 -8 47 -28 47 -43 0 -6 4
-11 9 -11 5 0 13 -9 16 -20 3 -11 14 -20 24 -20 21 0 61 -32 61 -49 0 -6 5
-11 10 -11 11 0 25 -10 65 -47 13 -13 29 -23 35 -23 5 0 10 -5 10 -11 0 -14
55 -69 69 -69 6 0 11 -7 11 -15 0 -8 5 -15 11 -15 7 0 19 -8 28 -19 9 -10 26
-21 39 -25 12 -4 22 -12 22 -17 0 -5 16 -9 36 -9 54 0 94 44 94 104 0 25 -4
46 -10 46 -5 0 -10 11 -10 25 0 14 -5 25 -11 25 -14 0 -69 55 -69 69 0 6 -7
11 -15 11 -8 0 -15 4 -15 9 0 5 -9 12 -19 16 -11 3 -23 15 -26 26 -4 11 -15
19 -30 19 -16 0 -25 7 -29 24 -3 14 -16 28 -28 32 -27 8 -64 44 -72 71 -4 12
-18 23 -35 26 -18 4 -32 15 -36 27 -3 11 -11 20 -16 20 -5 0 -9 7 -9 15 0 8
-9 15 -20 15 -10 0 -30 11 -44 25 -14 14 -28 25 -31 25 -9 0 -35 27 -35 37 0
9 -36 43 -46 43 -9 0 -64 61 -64 71 0 5 -11 9 -24 9 -16 0 -27 7 -31 20 -3 11
-11 20 -16 20 -5 0 -9 9 -9 20 0 11 4 20 9 20 5 0 13 9 16 20 4 13 15 20 31
20 13 0 24 4 24 9 0 12 56 71 67 71 4 0 17 11 27 25 10 14 27 25 37 25 11 0
19 6 19 14 0 22 52 72 83 80 15 3 27 12 27 20 0 18 34 56 51 56 16 0 49 34 49
50 0 6 5 10 11 10 6 0 26 16 45 35 18 19 43 35 54 35 11 0 20 7 20 15 0 16 46
65 61 65 15 0 35 22 43 47 4 12 17 23 29 25 14 2 23 11 25 26 2 12 8 22 13 22
14 0 11 99 -3 115 -7 8 -19 21 -26 30 -17 19 -86 20 -106 0z m64 -50 c0 -8 7
-15 15 -15 9 0 15 -9 15 -25 0 -14 -4 -25 -9 -25 -5 0 -12 -11 -15 -25 -4 -14
-13 -25 -21 -25 -16 0 -75 -54 -75 -70 0 -5 -7 -10 -15 -10 -8 0 -15 -4 -15
-10 0 -5 -6 -10 -14 -10 -7 0 -22 -11 -32 -25 -10 -14 -24 -25 -31 -25 -7 0
-13 -5 -13 -11 0 -13 -38 -49 -52 -49 -14 0 -55 -45 -62 -68 -4 -12 -16 -22
-26 -22 -19 0 -80 -51 -80 -68 0 -5 -11 -13 -25 -16 -14 -4 -25 -10 -25 -15 0
-13 -36 -51 -49 -51 -6 0 -11 -6 -11 -14 0 -8 -9 -18 -20 -21 -11 -3 -20 -11
-20 -16 0 -5 -7 -9 -15 -9 -8 0 -15 -4 -15 -10 0 -5 -7 -10 -15 -10 -8 0 -15
-4 -15 -8 0 -11 -35 -52 -45 -52 -4 0 -20 -13 -35 -30 -15 -16 -33 -30 -39
-30 -6 0 -11 -9 -11 -20 0 -11 5 -20 11 -20 6 0 24 -13 39 -30 15 -16 31 -30
35 -30 10 0 45 -41 45 -52 0 -4 7 -8 15 -8 8 0 15 -4 15 -9 0 -5 11 -12 25
-15 14 -4 25 -13 25 -21 0 -8 4 -15 9 -15 5 0 13 -9 16 -20 3 -11 13 -20 21
-20 14 0 54 -34 54 -46 0 -7 27 -34 35 -34 6 0 19 -10 50 -37 7 -7 21 -13 29
-13 9 0 16 -7 16 -15 0 -16 46 -65 61 -65 14 0 39 -26 39 -39 0 -6 4 -11 9
-11 5 0 13 -9 16 -20 4 -11 15 -20 26 -20 11 0 22 -7 25 -15 4 -8 12 -15 20
-15 8 0 14 -7 14 -15 0 -8 7 -15 15 -15 8 0 15 -4 15 -9 0 -5 9 -12 19 -16 11
-3 23 -15 26 -26 4 -10 15 -19 25 -19 11 0 20 -10 24 -25 4 -14 11 -25 16 -25
15 0 12 -50 -4 -66 -22 -21 -54 -17 -62 8 -9 28 -24 43 -52 52 -12 4 -22 12
-22 17 0 5 -6 9 -14 9 -8 0 -17 11 -20 25 -4 14 -13 25 -21 25 -16 0 -75 54
-75 70 0 5 -7 10 -15 10 -8 0 -15 4 -15 9 0 5 -9 12 -19 16 -11 3 -23 15 -26
26 -4 10 -15 19 -26 19 -10 0 -19 5 -19 11 0 13 -38 49 -52 49 -14 0 -55 45
-62 68 -4 12 -14 22 -23 22 -17 0 -73 53 -73 69 0 5 -13 12 -30 16 -16 4 -32
15 -35 26 -4 10 -15 19 -25 19 -12 0 -22 9 -26 25 -3 13 -15 27 -25 30 -10 4
-19 11 -19 16 0 5 -5 9 -11 9 -13 0 -69 58 -69 71 0 5 -9 9 -19 9 -21 0 -31
19 -31 60 0 41 10 60 31 60 10 0 19 4 19 9 0 10 55 71 64 71 11 0 66 57 66 69
0 6 9 11 19 11 11 0 23 9 26 20 3 11 13 20 21 20 8 0 14 4 14 9 0 5 11 12 25
15 14 4 25 13 25 21 0 8 4 15 9 15 5 0 13 9 16 20 3 11 14 20 23 20 18 0 52
33 52 50 0 6 5 10 10 10 6 0 22 10 35 23 42 39 54 47 70 47 8 0 15 7 15 15 0
16 46 65 61 65 11 0 39 25 39 35 0 11 25 32 47 39 12 4 25 16 28 27 4 10 13
19 21 19 8 0 14 7 14 15 0 8 5 15 11 15 6 0 17 6 24 13 33 29 45 37 55 37 5 0
10 7 10 15 0 8 5 15 10 15 6 0 10 -7 10 -15z"/>
<path d="M2028 2253 c-10 -2 -18 -13 -18 -24 0 -10 -4 -19 -10 -19 -6 0 -10
-27 -10 -61 0 -51 4 -65 22 -80 11 -11 25 -19 30 -19 11 0 38 -25 38 -36 0
-13 43 -44 61 -44 10 0 21 -9 24 -20 3 -11 11 -20 16 -20 5 0 9 -5 9 -11 0
-15 22 -35 47 -43 12 -4 25 -16 28 -27 4 -10 15 -19 25 -19 10 0 20 -10 24
-24 3 -14 16 -26 31 -30 14 -4 25 -11 25 -16 0 -6 5 -10 11 -10 12 0 39 -25
39 -37 0 -9 36 -43 46 -43 9 0 54 -49 54 -60 0 -5 7 -10 15 -10 8 0 30 -16 49
-35 20 -19 42 -35 51 -35 8 0 15 -4 15 -9 0 -11 55 -71 65 -71 11 0 35 -28 35
-40 0 -12 -24 -40 -35 -40 -10 0 -65 -60 -65 -71 0 -5 -7 -9 -15 -9 -9 0 -27
-11 -41 -25 -14 -14 -29 -25 -34 -25 -6 0 -10 -7 -10 -15 0 -8 -6 -15 -12 -15
-7 0 -26 -16 -43 -35 -16 -19 -38 -35 -47 -35 -10 0 -18 -6 -18 -13 0 -20 -31
-53 -57 -61 -13 -4 -23 -12 -23 -17 0 -5 -6 -9 -14 -9 -8 0 -17 -11 -20 -25
-4 -14 -13 -25 -21 -25 -16 0 -75 -54 -75 -70 0 -5 -6 -10 -13 -10 -7 0 -21
-11 -31 -25 -10 -14 -25 -25 -33 -25 -15 0 -43 -23 -43 -36 0 -9 -41 -44 -52
-44 -5 0 -20 -11 -33 -25 -22 -21 -25 -33 -25 -94 0 -67 1 -71 25 -77 14 -3
25 -10 25 -15 0 -5 23 -9 50 -9 28 0 50 4 50 9 0 5 10 13 23 17 23 7 57 41 57
56 0 12 26 38 38 38 15 0 49 34 56 58 4 13 15 22 27 22 11 0 30 11 43 25 13
14 28 25 35 25 6 0 11 5 11 10 0 16 58 70 75 70 7 0 17 10 21 23 8 26 41 57
61 57 16 0 63 44 63 60 0 5 5 10 11 10 7 0 26 16 45 35 18 19 37 35 43 35 6 0
11 6 11 14 0 8 9 17 19 21 11 3 23 15 26 26 4 12 15 19 30 19 18 0 26 7 31 25
3 13 15 27 25 30 10 4 19 11 19 16 0 5 6 9 13 9 7 0 19 10 27 21 8 12 25 32
38 45 17 18 22 35 22 74 0 39 -5 56 -22 74 -13 13 -30 33 -38 45 -8 11 -18 21
-22 21 -13 0 -68 56 -68 69 0 6 -11 11 -25 11 -14 0 -25 4 -25 10 0 14 -49 60
-65 60 -8 0 -15 7 -15 15 0 8 -4 15 -9 15 -5 0 -13 9 -16 20 -3 11 -14 20 -23
20 -16 0 -52 32 -52 46 0 11 -29 34 -44 34 -9 0 -16 4 -16 9 0 5 -9 13 -20 16
-11 3 -23 17 -26 31 -4 14 -13 24 -24 24 -10 0 -21 9 -25 19 -3 11 -16 23 -28
27 -21 7 -47 28 -47 38 0 16 -37 46 -57 46 -13 0 -24 8 -28 20 -3 11 -11 20
-16 20 -5 0 -9 5 -9 11 0 15 -22 35 -48 43 -12 4 -25 18 -28 32 -4 15 -13 24
-25 24 -10 0 -19 4 -19 9 0 5 -7 17 -16 25 -15 15 -84 20 -126 9z m72 -58 c0
-8 7 -15 16 -15 18 0 74 -53 74 -69 0 -6 5 -11 10 -11 6 0 22 -11 36 -25 14
-14 30 -25 35 -25 15 0 35 -22 43 -47 4 -12 18 -24 32 -27 31 -8 69 -44 78
-74 4 -12 15 -22 25 -22 10 0 27 -11 37 -25 10 -14 24 -25 31 -25 7 0 13 -6
13 -13 0 -7 10 -19 21 -27 12 -8 27 -21 35 -27 7 -7 18 -13 24 -13 13 0 40
-25 40 -37 0 -9 36 -43 46 -43 9 0 54 -49 54 -58 0 -6 11 -13 24 -16 14 -3 28
-15 31 -26 3 -11 13 -20 21 -20 8 0 14 -4 14 -10 0 -5 5 -10 11 -10 13 0 69
-58 69 -71 0 -5 9 -9 20 -9 17 0 20 -7 20 -40 0 -33 -3 -40 -20 -40 -11 0 -20
-4 -20 -9 0 -13 -56 -71 -69 -71 -6 0 -11 -4 -11 -10 0 -5 -4 -10 -10 -10 -13
0 -50 -37 -50 -50 0 -5 -5 -10 -11 -10 -6 0 -23 -13 -38 -29 -14 -15 -36 -31
-49 -35 -12 -4 -22 -13 -22 -20 0 -19 -35 -56 -52 -56 -16 0 -58 -32 -58 -44
0 -9 -26 -36 -35 -36 -11 0 -65 -58 -65 -69 0 -6 -5 -11 -10 -11 -6 0 -22 -11
-36 -25 -14 -14 -31 -25 -39 -25 -8 0 -15 -4 -15 -10 0 -5 -6 -10 -14 -10 -8
0 -17 -11 -20 -24 -3 -14 -16 -28 -28 -32 -27 -8 -64 -45 -72 -72 -4 -12 -15
-22 -24 -22 -18 0 -52 -33 -52 -50 0 -6 -9 -10 -20 -10 -11 0 -20 -4 -20 -10
0 -15 -29 -12 -46 4 -20 21 -17 59 6 76 11 8 20 18 20 23 0 13 27 37 41 37 6
0 22 11 35 25 13 14 30 25 37 25 8 0 18 11 21 24 3 14 15 28 26 31 11 3 20 11
20 16 0 5 5 9 11 9 15 0 35 22 43 47 4 12 18 24 32 27 28 7 74 48 74 66 0 5 5
10 11 10 7 0 26 16 45 35 18 19 37 35 43 35 6 0 11 7 11 15 0 8 4 15 10 15 5
0 20 11 34 25 14 14 30 25 36 25 14 0 34 20 43 43 3 9 16 17 27 17 11 0 20 4
20 9 0 11 55 71 65 71 10 0 45 41 45 52 0 4 7 8 15 8 8 0 15 9 15 20 0 11 -7
20 -15 20 -8 0 -15 4 -15 8 0 11 -35 52 -45 52 -4 0 -20 14 -35 30 -15 17 -31
30 -34 30 -10 0 -66 60 -66 70 0 6 -7 10 -15 10 -9 0 -31 16 -51 35 -19 19
-41 35 -49 35 -8 0 -15 7 -15 15 0 8 -4 15 -9 15 -5 0 -13 9 -16 20 -3 11 -14
20 -23 20 -16 0 -52 32 -52 46 0 10 -28 34 -39 34 -6 0 -11 5 -11 10 0 6 -6
10 -13 10 -14 0 -47 35 -47 50 0 6 -5 10 -10 10 -6 0 -22 11 -36 25 -14 14
-30 25 -35 25 -15 0 -35 23 -43 48 -4 12 -19 25 -34 29 -28 7 -72 45 -72 63 0
5 -4 10 -10 10 -5 0 -10 11 -10 25 0 14 5 25 10 25 6 0 10 7 10 15 0 8 9 15
20 15 11 0 20 -7 20 -15z"/>
<path d="M4410 1340 c0 -5 -16 -10 -35 -10 -19 0 -35 -4 -35 -10 0 -5 -9 -10
-20 -10 -11 0 -20 -4 -20 -10 0 -5 -5 -10 -10 -10 -14 0 -70 -55 -70 -69 0 -6
-4 -11 -10 -11 -5 0 -10 -9 -10 -19 0 -11 -5 -21 -11 -23 -6 -2 -13 -25 -16
-51 -3 -26 -10 -47 -14 -47 -5 0 -9 -29 -9 -64 0 -35 -5 -66 -10 -68 -6 -2
-11 -86 -13 -225 -2 -214 -1 -222 19 -240 12 -10 24 -28 28 -40 4 -13 18 -26
32 -29 13 -3 24 -10 24 -15 0 -5 41 -9 90 -9 50 0 90 4 90 9 0 4 16 11 35 14
36 6 65 27 65 46 0 6 11 11 24 11 16 0 27 7 31 20 3 11 11 20 16 20 5 0 9 7 9
15 0 8 4 15 9 15 5 0 11 18 15 40 3 22 11 40 16 40 6 0 10 18 10 40 l0 40 -94
0 c-129 0 -156 -6 -156 -36 0 -13 5 -24 10 -24 6 0 10 -9 10 -20 0 -15 -7 -20
-25 -20 -18 0 -25 5 -25 20 0 11 -4 20 -10 20 -5 0 -10 7 -10 15 0 8 5 15 10
15 6 0 10 32 10 75 0 41 4 75 8 75 5 0 12 66 16 148 4 81 11 149 16 150 6 2
10 10 10 18 0 8 7 14 15 14 12 0 15 -14 15 -65 l0 -65 60 0 c47 0 60 3 60 15
0 11 12 15 45 15 54 0 85 25 85 70 0 17 -4 30 -9 30 -4 0 -11 22 -14 50 -4 35
-14 58 -32 75 -14 14 -25 30 -25 35 0 6 -9 10 -20 10 -11 0 -20 5 -20 10 0 6
-13 10 -30 10 -16 0 -30 5 -30 10 0 6 -22 10 -50 10 -27 0 -50 -4 -50 -10z"/>
<path d="M3680 1320 c0 -5 -9 -10 -20 -10 -16 0 -21 -9 -26 -50 -4 -27 -10
-50 -15 -50 -5 0 -9 -13 -9 -30 0 -16 -4 -30 -10 -30 -5 0 -10 -13 -10 -30 0
-20 -5 -30 -15 -30 -10 0 -16 -17 -21 -60 -4 -33 -11 -60 -15 -60 -5 0 -9 -13
-9 -30 0 -16 -4 -30 -9 -30 -5 0 -12 -29 -16 -65 -3 -36 -11 -65 -16 -65 -5 0
-9 -16 -9 -35 0 -19 -4 -35 -10 -35 -5 0 -12 -27 -16 -60 -4 -33 -11 -60 -15
-60 -5 0 -9 -13 -9 -30 0 -16 -4 -30 -10 -30 -5 0 -12 -27 -16 -60 -4 -33 -11
-60 -15 -60 -5 0 -9 -7 -9 -15 0 -12 17 -15 90 -15 53 0 90 4 90 10 0 6 10 10
23 10 36 0 44 12 51 73 6 47 11 57 27 57 10 0 19 -4 19 -10 0 -5 11 -10 24
-10 27 0 36 -21 36 -87 l0 -43 100 0 c60 0 100 4 100 10 0 6 7 10 15 10 13 0
15 21 15 129 0 71 -4 131 -9 133 -5 2 -12 112 -16 246 -4 133 -12 242 -16 242
-5 0 -9 41 -9 90 l0 90 -120 0 c-73 0 -120 -4 -120 -10z m80 -405 c0 -30 -4
-55 -10 -55 -5 0 -10 -22 -10 -50 0 -27 5 -50 10 -50 6 0 10 -11 10 -25 0 -22
-4 -25 -35 -25 -33 0 -35 2 -35 35 0 19 5 35 10 35 6 0 10 18 10 40 0 22 5 40
10 40 6 0 10 15 10 33 0 17 3 42 6 55 11 40 24 23 24 -33z"/>
<path d="M5000 1320 c0 -5 -7 -10 -15 -10 -8 0 -15 -9 -15 -20 0 -11 -4 -20
-10 -20 -5 0 -10 -13 -10 -30 0 -16 -4 -30 -9 -30 -6 0 -13 -31 -17 -70 -3
-38 -11 -70 -15 -70 -5 0 -9 -13 -9 -30 0 -16 -4 -30 -10 -30 -5 0 -12 -27
-16 -60 -4 -33 -11 -60 -15 -60 -5 0 -9 -11 -9 -25 0 -14 -4 -25 -9 -25 -5 0
-13 -29 -16 -65 -5 -45 -12 -65 -21 -65 -8 0 -14 -10 -14 -25 0 -14 -4 -25 -9
-25 -5 0 -12 -29 -16 -65 -3 -36 -11 -65 -16 -65 -5 0 -9 -11 -9 -24 0 -13 -4
-26 -8 -28 -5 -1 -12 -24 -15 -50 l-7 -48 95 0 c52 0 95 4 95 9 0 5 11 12 25
15 22 6 25 12 25 51 0 25 5 45 10 45 6 0 10 7 10 15 0 8 7 15 15 15 8 0 15 -4
15 -10 0 -5 14 -10 30 -10 25 0 30 -4 30 -25 0 -14 5 -25 10 -25 6 0 10 -18
10 -40 l0 -40 90 0 c53 0 90 4 90 10 0 6 11 10 25 10 25 0 25 0 25 95 0 78 -3
95 -15 95 -13 0 -15 21 -15 125 0 69 -4 125 -9 125 -4 0 -12 104 -16 232 -5
171 -10 235 -20 245 -17 16 -235 19 -235 3z m100 -405 c0 -30 -4 -55 -10 -55
-6 0 -10 -27 -10 -60 0 -33 4 -60 10 -60 6 0 10 -7 10 -15 0 -11 -11 -15 -40
-15 l-40 0 0 40 c0 28 4 40 14 40 10 0 16 22 21 83 7 74 15 96 38 97 4 0 7
-25 7 -55z"/>
<path d="M5550 1320 c0 -5 -9 -10 -20 -10 -18 0 -20 -7 -20 -60 0 -33 -4 -60
-10 -60 -6 0 -10 -37 -10 -90 0 -49 -4 -90 -9 -90 -5 0 -12 -72 -16 -160 -4
-88 -11 -160 -16 -160 -5 0 -9 -36 -9 -80 0 -47 -4 -80 -10 -80 -6 0 -10 -32
-10 -75 l0 -75 135 0 c74 0 135 4 135 9 0 4 26 11 57 14 32 3 59 11 61 17 2 5
12 10 23 10 10 0 19 7 19 15 0 8 18 32 40 54 22 22 40 48 40 59 0 11 5 22 11
24 7 2 14 42 17 101 2 53 9 97 13 97 5 0 9 36 9 80 0 47 4 80 10 80 6 0 10 31
10 74 0 50 4 76 13 80 10 5 10 7 0 12 -8 3 -13 25 -13 55 0 27 -4 49 -10 49
-5 0 -10 9 -10 20 0 11 -4 20 -9 20 -5 0 -13 9 -16 20 -3 11 -15 20 -26 20
-10 0 -19 5 -19 10 0 6 -7 10 -15 10 -8 0 -15 5 -15 10 0 6 -62 10 -165 10
-103 0 -165 -4 -165 -10z m220 -255 c0 -41 -4 -75 -9 -75 -4 0 -11 -73 -15
-162 -4 -90 -12 -164 -17 -166 -12 -5 -12 -32 1 -32 6 0 10 -4 10 -10 0 -5
-16 -10 -35 -10 -19 0 -35 5 -35 10 0 6 4 10 9 10 5 0 12 74 16 165 4 91 11
165 16 165 5 0 9 34 9 75 0 43 4 75 10 75 6 0 10 7 10 15 0 8 7 15 15 15 12 0
15 -15 15 -75z"/>
<path d="M6190 1320 c0 -5 -7 -10 -15 -10 -8 0 -15 -9 -15 -20 0 -11 -4 -20
-9 -20 -4 0 -11 -73 -15 -162 -4 -90 -12 -164 -17 -166 -5 -2 -9 -39 -9 -83 0
-43 -4 -79 -9 -79 -5 0 -12 -72 -16 -160 -4 -88 -11 -160 -16 -160 -5 0 -9
-18 -9 -40 l0 -40 215 0 c118 0 215 4 215 9 0 5 14 11 30 15 29 5 30 8 30 56
0 27 5 50 10 50 6 0 10 23 10 50 l0 50 -125 0 -125 0 0 35 c0 19 5 35 10 35 6
0 10 17 10 38 0 40 18 76 27 55 3 -8 23 -13 48 -13 47 0 55 9 55 66 0 19 5 34
10 34 6 0 10 25 10 55 l0 55 -60 0 -60 0 0 85 c0 69 3 85 15 85 8 0 15 -7 15
-15 0 -12 17 -15 90 -15 73 0 90 3 90 15 0 8 8 15 19 15 24 0 31 26 31 118 l0
72 -220 0 c-140 0 -220 -4 -220 -10z"/>
<path d="M6780 1320 c0 -5 -5 -10 -11 -10 -29 0 -36 -29 -43 -185 -4 -88 -12
-161 -17 -163 -5 -2 -9 -42 -9 -88 0 -46 -4 -84 -9 -84 -5 0 -12 -74 -16 -165
-4 -91 -11 -165 -16 -165 -5 0 -9 -18 -9 -40 l0 -40 95 0 c52 0 95 4 95 9 0 5
10 11 23 13 21 3 22 8 25 91 1 48 7 87 12 87 6 0 10 35 10 80 0 47 4 80 10 80
6 0 10 32 10 75 0 43 4 75 10 75 6 0 11 19 11 43 1 23 3 34 6 25 2 -10 9 -18
14 -18 5 0 9 -29 9 -65 0 -37 4 -65 10 -65 6 0 10 7 10 15 0 8 7 15 16 15 20
0 39 20 48 48 4 12 12 22 17 22 5 0 9 11 9 24 0 13 7 27 15 30 13 5 15 0 9
-32 -4 -20 -11 -38 -15 -40 -5 -2 -9 -28 -9 -58 0 -30 -4 -54 -9 -54 -5 0 -12
-72 -16 -160 -4 -88 -11 -160 -16 -160 -5 0 -9 -18 -9 -40 l0 -40 90 0 c50 0
90 4 90 9 0 5 12 11 28 13 27 3 27 4 30 81 2 42 7 77 12 77 6 0 10 33 10 74 0
41 4 76 9 78 5 2 13 81 17 176 4 94 11 172 15 172 5 0 9 34 9 75 0 43 4 75 10
75 6 0 10 27 10 60 l0 60 -101 0 c-100 0 -101 0 -130 -31 -16 -17 -29 -37 -29
-45 0 -8 -4 -14 -10 -14 -5 0 -10 -14 -10 -31 0 -39 -20 -62 -38 -43 -7 7 -12
20 -12 29 0 8 -4 15 -10 15 -5 0 -10 14 -10 30 0 17 -4 30 -10 30 -5 0 -10 7
-10 16 0 35 -26 44 -124 44 -57 0 -96 -4 -96 -10z"/>
<path d="M7510 1320 c0 -5 -9 -10 -20 -10 -11 0 -20 -4 -20 -10 0 -5 5 -10 10
-10 6 0 10 -27 10 -60 0 -33 4 -60 10 -60 6 0 10 -22 10 -50 0 -27 5 -50 10
-50 6 0 10 -22 10 -50 0 -27 4 -50 9 -50 5 0 12 -43 16 -95 4 -52 11 -95 16
-95 5 0 9 -34 9 -75 0 -41 -4 -75 -9 -75 -9 0 -22 -216 -14 -237 6 -15 173
-19 173 -4 0 5 14 11 30 14 l30 6 0 76 c0 41 4 75 8 75 5 0 12 48 15 107 3 61
11 109 17 111 5 2 10 10 10 18 0 8 4 14 9 14 5 0 11 23 15 50 4 28 11 50 16
50 6 0 10 11 10 25 0 14 5 25 10 25 6 0 10 7 10 15 0 8 4 15 9 15 4 0 11 21
14 47 3 26 10 49 16 51 6 2 11 14 11 27 0 13 5 25 11 27 6 2 13 25 16 51 4 31
10 47 19 47 8 0 14 6 14 14 0 8 4 16 8 18 5 2 12 15 16 31 l6 27 -114 0 c-106
0 -115 -2 -121 -20 -3 -11 -11 -20 -16 -20 -5 0 -9 -31 -9 -70 0 -38 -4 -70
-9 -70 -6 0 -11 -19 -13 -42 -2 -31 -8 -44 -20 -46 -16 -3 -18 8 -18 118 0 92
-3 125 -14 136 -17 17 -206 21 -206 4z"/>
</g>
</svg>
